<?xml version="1.0" standalone="no"?>
<!DOCTYPE svg PUBLIC "-//W3C//DTD SVG 20010904//EN"
 "http://www.w3.org/TR/2001/REC-SVG-20010904/DTD/svg10.dtd">
<svg version="1.0" xmlns="http://www.w3.org/2000/svg"
 width="1344.000000pt" height="768.000000pt" viewBox="0 0 1344.000000 768.000000"
 preserveAspectRatio="xMidYMid meet">

<g transform="translate(0.000000,768.000000) scale(0.100000,-0.100000)"
fill="#000000" stroke="none">
<path d="M1729 7592 c-8 -15 -30 -56 -49 -92 -19 -36 -42 -76 -52 -89 -23 -31
-23 -54 2 -76 24 -21 26 -35 5 -35 -8 0 -27 -13 -42 -28 -16 -16 -35 -31 -44
-34 -9 -4 -30 -31 -48 -62 -17 -31 -38 -56 -46 -56 -14 0 -17 -7 -20 -52 0 -9
-11 -29 -23 -43 -12 -14 -22 -32 -22 -39 0 -20 -17 -29 -23 -14 -3 7 -6 5 -6
-6 -1 -27 -50 -126 -61 -126 -6 0 -10 -7 -10 -15 0 -8 -9 -15 -21 -15 -11 0
-18 -4 -15 -9 11 -17 -14 -61 -40 -71 -20 -8 -24 -14 -18 -28 4 -9 7 -28 6
-42 0 -14 4 -31 10 -37 7 -9 7 -13 -3 -13 -22 0 5 -21 30 -23 16 -1 21 -8 21
-29 0 -31 3 -33 32 -17 17 9 18 13 7 20 -11 7 -11 9 2 9 9 0 22 -6 29 -14 6
-8 21 -16 33 -18 30 -4 28 -31 -3 -38 -21 -5 -25 -12 -28 -50 -2 -25 -9 -48
-15 -52 -8 -5 -5 -14 12 -30 16 -16 25 -19 28 -10 3 7 22 12 44 12 28 0 39 4
39 15 0 9 -9 15 -24 15 -21 0 -24 5 -28 48 -3 26 -3 49 -1 51 1 2 14 -1 28 -7
21 -10 25 -9 25 4 0 15 2 15 23 1 12 -8 21 -20 20 -26 -2 -5 6 -13 17 -16 11
-4 20 -15 20 -26 0 -12 4 -17 11 -14 15 10 67 -14 72 -33 3 -12 5 -10 6 6 0
12 4 22 8 22 13 0 63 -53 63 -67 0 -7 12 -13 28 -13 19 0 23 -3 13 -9 -21 -13
19 -20 41 -7 13 8 21 6 30 -6 17 -22 87 -52 114 -49 15 1 22 -3 20 -15 0 -9 6
-18 14 -20 8 -1 29 -5 46 -9 28 -6 32 -4 55 39 13 25 27 46 31 46 5 0 8 10 9
23 0 12 3 16 6 10 10 -26 25 -13 20 17 -4 18 -2 32 6 37 13 8 30 40 47 86 5
15 15 27 21 27 6 0 9 6 6 14 -3 8 3 23 14 34 10 12 19 26 19 33 0 10 23 59 51
109 4 8 27 53 49 100 23 47 45 92 50 100 5 8 25 41 44 73 20 32 36 63 36 68 0
5 11 27 25 49 14 22 25 44 25 49 0 5 6 14 14 20 8 7 17 24 21 38 5 21 1 31
-22 49 -15 13 -35 23 -44 24 -9 0 -28 9 -42 20 -14 11 -30 20 -36 20 -6 0 -36
14 -66 30 -30 17 -60 30 -65 30 -6 0 -27 11 -48 24 -20 14 -57 33 -82 42 -25
10 -47 21 -50 24 -6 8 -134 70 -144 70 -4 0 -17 9 -29 21 -12 12 -41 29 -63
39 -23 10 -45 23 -48 29 -13 21 -51 12 -67 -17z m431 -352 c29 -29 25 -40 -16
-40 -36 0 -63 20 -64 48 0 20 58 14 80 -8z m100 -272 c17 -12 30 -25 30 -30 0
-17 -31 -7 -62 22 -26 23 -29 29 -15 30 10 0 31 -10 47 -22z"/>
<path d="M9106 7447 c3 -10 9 -15 12 -12 3 3 0 11 -7 18 -10 9 -11 8 -5 -6z"/>
<path d="M12201 7257 c-25 -12 -58 -39 -74 -59 -25 -31 -28 -43 -23 -71 10
-55 41 -87 83 -87 47 0 108 29 124 58 7 12 18 22 25 22 22 0 28 66 10 105 -29
60 -71 69 -145 32z"/>
<path d="M9070 7199 c-96 -34 -246 -75 -360 -99 -25 -5 -56 -12 -70 -16 -43
-11 -131 -11 -138 0 -3 6 -5 22 -4 36 3 29 -23 64 -55 74 -27 9 -77 -16 -98
-48 -15 -22 -15 -28 -1 -61 9 -21 16 -39 16 -40 0 -1 -24 -14 -52 -28 -64 -32
-148 -56 -205 -60 -23 -1 -45 -6 -49 -10 -12 -12 -44 -8 -44 6 0 9 -2 9 -8 0
-11 -18 -162 -21 -162 -3 0 6 8 10 18 10 16 1 16 1 0 14 -11 8 -18 27 -18 49
0 24 6 40 18 46 14 9 15 12 3 20 -16 10 -79 5 -95 -8 -6 -5 -26 -12 -44 -16
-30 -6 -33 -10 -28 -34 24 -105 29 -154 17 -187 -7 -19 -9 -39 -6 -45 7 -10
11 -38 30 -179 8 -67 25 -157 41 -227 8 -34 14 -65 13 -70 -3 -17 14 -73 26
-83 8 -7 69 4 201 36 104 26 196 49 204 52 8 3 22 6 30 8 8 1 35 10 60 19 40
15 78 24 190 42 19 3 42 11 51 19 8 7 36 15 62 16 26 2 47 6 47 9 0 12 38 17
49 6 6 -6 11 -7 11 -1 0 5 12 14 28 20 91 36 142 54 182 64 25 7 72 21 105 32
33 11 100 28 149 39 50 10 92 23 95 28 3 5 15 10 26 13 18 3 20 10 16 78 -2
41 -10 91 -18 110 -9 19 -19 53 -24 75 -13 57 -14 59 -23 74 -5 7 -19 63 -33
125 -13 61 -29 116 -36 122 -9 8 -40 1 -117 -27z"/>
<path d="M616 6784 c-11 -28 -7 -43 19 -69 16 -15 37 -25 55 -25 26 0 29 3 27
28 -5 60 -84 112 -101 66z"/>
<path d="M11035 6730 c-4 -6 3 -10 14 -10 25 0 27 6 6 13 -8 4 -17 2 -20 -3z"/>
<path d="M11100 6680 c0 -22 5 -40 10 -40 12 0 13 -47 2 -54 -5 -3 -10 -28
-11 -56 -1 -39 2 -50 14 -50 18 0 45 -61 44 -99 -1 -43 -24 -94 -43 -97 -10
-1 -23 -7 -29 -13 -15 -15 -120 -14 -135 1 -9 9 -12 9 -12 1 0 -7 -8 -14 -18
-17 -14 -5 -16 -15 -14 -51 3 -37 7 -45 24 -45 12 0 26 7 33 16 8 12 30 16 84
17 70 1 73 0 101 -33 16 -19 27 -36 25 -39 -3 -2 2 -15 10 -28 15 -22 14 -24
-17 -43 -32 -20 -91 -22 -119 -4 -8 5 -10 -2 -7 -25 4 -31 -6 -43 -15 -18 -3
7 -6 5 -6 -5 -1 -21 -31 -58 -46 -58 -6 0 -11 -10 -12 -21 -2 -17 1 -19 10
-10 6 6 16 11 22 11 14 0 45 -89 46 -131 l1 -34 10 28 c5 15 23 42 39 60 16
17 30 38 31 47 3 30 4 35 16 57 7 13 26 30 43 39 28 14 36 14 77 0 55 -17 151
-36 237 -47 33 -4 92 -12 130 -18 174 -25 174 -25 181 -7 4 10 2 22 -5 29 -6
6 -11 19 -11 29 0 10 -5 18 -11 18 -5 0 -7 5 -4 10 9 14 -14 42 -28 33 -6 -3
-35 -8 -66 -9 -65 -3 -111 14 -135 51 -18 27 -13 47 19 79 24 24 43 78 39 111
-6 51 -7 55 -15 55 -4 0 -10 11 -13 24 -3 13 -13 26 -21 30 -16 6 -75 -30 -75
-46 0 -4 -19 -8 -43 -8 -39 0 -45 3 -67 39 -14 22 -39 46 -56 54 -48 23 -50
60 -6 104 20 20 30 38 25 42 -6 3 -13 16 -17 29 -7 20 -39 29 -78 23 -5 0 -8
4 -8 9 0 6 -8 10 -17 10 -14 0 -15 2 -4 9 9 6 10 11 2 15 -6 4 -11 18 -11 32
0 14 -4 23 -9 19 -5 -3 -12 -1 -16 5 -4 7 -13 6 -28 -1 -16 -9 -22 -9 -25 0
-9 26 -22 8 -22 -29z"/>
<path d="M12835 6693 c-28 -25 -30 -30 -33 -122 -2 -69 -7 -100 -19 -113 -9
-10 -13 -26 -10 -39 4 -13 -3 -37 -16 -60 -21 -38 -37 -50 -37 -29 0 6 -9 10
-19 10 -35 0 -50 11 -61 46 -6 18 -14 33 -18 32 -4 -1 -27 4 -52 12 -46 13
-74 36 -64 51 3 5 -4 9 -14 9 -28 0 -56 -46 -47 -79 9 -35 9 -71 0 -101 -4
-14 -7 -35 -7 -47 0 -16 -6 -23 -19 -23 -10 0 -19 -6 -19 -14 0 -8 -6 -16 -14
-19 -8 -3 -13 1 -12 10 1 9 -9 17 -24 19 -14 2 -35 9 -47 15 -12 7 -30 8 -40
4 -10 -5 -25 -8 -33 -7 -8 1 -2 -5 14 -12 22 -10 25 -14 12 -19 -9 -4 -16 -2
-16 3 0 6 -4 10 -10 10 -5 0 -10 -9 -10 -21 0 -12 4 -17 11 -13 8 4 8 0 0 -15
-13 -23 -2 -28 17 -9 9 9 16 6 31 -10 12 -15 25 -20 36 -16 10 4 21 1 26 -7 7
-12 9 -12 9 1 0 10 3 11 8 4 4 -6 16 -16 27 -22 17 -10 13 -11 -27 -12 -39 0
-48 -3 -48 -17 0 -15 -2 -16 -10 -3 -7 11 -10 0 -10 -37 0 -31 -4 -53 -11 -53
-6 0 -17 -7 -25 -15 -9 -9 -34 -15 -58 -15 -41 0 -64 -13 -64 -35 0 -5 -6 -11
-14 -13 -9 -2 -8 0 2 7 12 9 10 11 -11 11 -15 0 -29 7 -33 15 -3 8 -11 15 -19
15 -16 0 -57 41 -57 58 0 6 -10 16 -21 23 -18 9 -25 7 -42 -10 -17 -16 -19
-23 -9 -33 7 -7 12 -20 12 -30 0 -10 7 -18 15 -18 8 0 24 -9 35 -20 24 -24 21
-48 -21 -135 -15 -33 -31 -69 -34 -80 -3 -11 -9 -15 -13 -10 -4 6 -18 10 -32
10 -14 0 -39 13 -59 32 -24 23 -39 30 -53 24 -11 -4 -19 -11 -19 -16 0 -6 -8
-19 -18 -30 -10 -11 -24 -36 -31 -55 -8 -19 -20 -39 -27 -43 -7 -4 -13 -15
-13 -22 0 -8 -4 -15 -9 -15 -5 0 -12 -17 -16 -37 -4 -21 -14 -49 -24 -63 -9
-14 -26 -45 -38 -70 -11 -25 -37 -80 -57 -122 -20 -42 -36 -84 -36 -92 0 -9
-3 -16 -8 -16 -7 0 -33 -48 -71 -135 -41 -91 -86 -180 -94 -183 -4 -2 -5 -8
-2 -12 8 -13 -36 -40 -66 -40 -14 0 -61 9 -105 21 -43 12 -103 26 -131 31 -29
6 -53 14 -53 19 0 5 -3 8 -7 7 -19 -5 -117 14 -137 27 -11 8 -41 17 -66 21
-37 6 -67 18 -99 41 -2 1 2 10 10 19 11 13 11 18 2 21 -7 3 -13 12 -13 21 0
13 -8 17 -33 16 -54 -3 -57 -3 -57 -19 0 -11 -11 -15 -40 -15 -31 0 -40 4 -40
17 0 14 -2 15 -12 4 -10 -11 -10 -14 0 -18 22 -8 13 -21 -30 -38 -47 -20 -119
-22 -162 -5 -15 5 -24 14 -21 20 3 5 1 10 -4 10 -6 0 -11 9 -11 20 0 12 -5 26
-11 33 -5 7 -19 27 -30 45 -11 18 -24 30 -29 27 -6 -3 -10 -1 -10 4 0 6 -11
11 -25 11 -14 0 -25 -4 -25 -10 0 -5 -7 -10 -15 -10 -8 0 -14 3 -14 8 5 28 -2
33 -23 18 -13 -9 -43 -16 -71 -16 -55 0 -82 22 -93 77 -3 17 -13 34 -21 37
-13 5 -13 9 -2 22 17 20 21 38 22 94 1 42 -1 45 -31 51 -30 6 -32 4 -57 -47
-19 -38 -32 -54 -46 -54 -34 0 -83 -29 -141 -82 -30 -28 -62 -36 -73 -18 -11
18 -25 10 -25 -15 0 -23 3 -25 49 -25 40 0 50 -3 54 -20 4 -14 14 -20 35 -20
39 0 61 -22 55 -54 -4 -21 -2 -24 21 -22 21 3 26 -1 26 -20 0 -13 -5 -24 -12
-24 -9 0 -9 -3 0 -12 7 -7 12 -31 12 -55 0 -24 4 -43 10 -43 5 0 12 -11 16
-25 3 -14 12 -25 20 -25 7 0 18 -18 24 -39 6 -22 15 -41 22 -43 8 -3 8 -9 0
-23 -6 -11 -13 -28 -16 -37 -3 -10 -13 -18 -22 -18 -10 0 -25 -6 -33 -14 -25
-22 -88 -36 -121 -26 -17 5 -28 5 -26 1 3 -4 -5 -8 -17 -8 -17 -2 -19 0 -7 7
8 5 10 10 4 10 -7 0 -15 12 -18 26 -8 31 -40 29 -44 -3 -4 -30 16 -66 34 -59
9 4 14 -2 14 -16 0 -17 3 -19 12 -10 15 15 48 16 48 2 0 -5 5 -10 10 -10 6 0
10 9 10 20 0 12 7 20 18 20 14 0 15 -2 2 -10 -12 -7 -8 -10 15 -11 26 0 27 -2
10 -9 -13 -6 -15 -9 -5 -9 13 -1 13 -2 0 -11 -10 -6 -11 -10 -3 -10 7 0 12 -3
12 -7 -3 -21 2 -33 16 -33 8 0 15 -9 15 -20 0 -11 -5 -20 -11 -20 -7 0 -9 -11
-6 -27 3 -15 1 -34 -3 -42 -33 -68 -34 -72 -20 -81 13 -8 13 -10 0 -10 -12 -1
-11 -3 3 -11 20 -12 23 -29 3 -29 -18 0 -27 -93 -12 -126 13 -27 14 -28 81
-10 56 15 90 6 100 -26 4 -10 16 -18 29 -18 24 0 56 -28 56 -48 0 -7 7 -12 15
-12 18 0 35 -39 35 -80 0 -23 -7 -33 -30 -45 -16 -9 -30 -20 -30 -25 0 -6 -13
-10 -30 -10 -24 0 -28 -3 -23 -17 6 -17 5 -17 -14 0 -11 9 -25 17 -31 17 -7 0
-12 4 -12 8 0 5 -12 15 -26 23 -14 7 -30 24 -35 36 -5 13 -20 27 -33 33 -13 5
-31 19 -40 32 -9 12 -16 17 -16 10 0 -18 -18 -14 -23 6 -4 15 -5 15 -6 -2 -1
-12 -6 -16 -17 -12 -12 4 -15 2 -11 -9 4 -8 -1 -21 -9 -30 -14 -13 -13 -15 13
-15 27 0 28 -2 25 -40 -2 -22 -8 -40 -13 -40 -5 0 -9 -34 -9 -75 0 -68 -3 -78
-25 -99 -27 -25 -104 -43 -114 -27 -4 6 -12 6 -21 1 -23 -15 -28 -12 -44 18
-11 20 -15 22 -16 9 0 -16 -5 -14 -37 10 -21 15 -40 31 -43 35 -3 3 -22 9 -43
13 -21 4 -37 13 -37 21 0 8 -6 14 -13 14 -7 0 -18 5 -24 11 -12 12 -154 19
-148 8 5 -7 -50 -49 -64 -49 -11 0 -21 -24 -21 -51 0 -10 -4 -19 -10 -19 -5 0
-10 -20 -10 -43 0 -40 -26 -91 -44 -87 -4 1 -12 -1 -19 -3 -6 -3 -2 -6 11 -6
12 -1 22 -5 22 -9 0 -10 -1 -10 -92 -18 -58 -5 -68 -4 -68 10 0 9 -8 16 -17
16 -9 0 -31 5 -49 12 -34 12 -79 3 -56 -11 7 -4 12 -13 10 -20 -2 -6 11 -19
27 -29 17 -9 32 -20 33 -24 2 -5 10 -8 18 -8 13 0 13 -3 0 -22 -8 -13 -17 -38
-21 -55 -6 -29 -3 -34 19 -43 37 -14 61 -42 58 -67 -3 -17 4 -26 25 -34 19 -7
29 -7 31 0 2 6 9 11 16 11 8 0 24 9 37 19 67 52 140 4 126 -84 -6 -39 9 -116
26 -128 9 -7 9 -10 0 -14 -15 -6 -18 -63 -3 -63 6 0 10 -14 10 -31 0 -26 3
-30 20 -26 10 3 24 -1 31 -9 9 -12 4 -14 -35 -14 -34 0 -46 -4 -46 -15 0 -10
-11 -15 -32 -16 -31 -1 -32 -1 -8 -9 19 -6 11 -8 -32 -9 -43 -1 -63 -6 -77
-20 -11 -11 -22 -17 -25 -13 -3 3 -6 -2 -6 -11 0 -13 -9 -17 -40 -17 -29 0
-40 4 -40 15 0 8 6 15 13 15 8 0 14 6 14 14 0 8 -5 14 -11 13 -6 -1 -12 10
-14 26 -3 24 -7 27 -43 27 -21 0 -39 -4 -39 -10 0 -5 -7 -10 -15 -10 -8 0 -15
5 -15 10 0 6 -11 10 -25 10 -22 0 -25 4 -25 40 0 29 -4 40 -15 40 -11 0 -15
-11 -15 -40 0 -36 -2 -40 -25 -40 -14 0 -25 -5 -25 -10 0 -6 -12 -22 -27 -36
-19 -17 -24 -27 -15 -31 6 -2 12 -22 12 -44 0 -35 -3 -39 -25 -39 -20 0 -25 5
-25 25 0 32 -13 32 -38 0 -11 -14 -25 -25 -31 -25 -6 0 -11 -7 -11 -15 0 -11
-11 -15 -40 -15 -29 0 -40 4 -40 15 0 11 -11 15 -40 15 -36 0 -40 2 -40 26 0
31 -23 28 -28 -4 -2 -12 -8 -22 -13 -22 -14 0 -11 -78 4 -83 8 -3 1 -16 -20
-36 -23 -23 -41 -31 -67 -31 -19 0 -36 5 -38 11 -2 7 -9 5 -17 -5 -11 -14 -11
-16 3 -16 13 0 16 -13 16 -80 0 -64 3 -80 15 -80 11 0 15 -11 15 -40 l0 -40
-55 0 -55 0 0 138 c-1 116 -3 134 -14 120 -7 -10 -21 -18 -30 -18 -12 0 -16
-10 -16 -40 0 -22 -4 -40 -10 -40 -5 0 -10 -4 -10 -9 0 -12 -59 -71 -71 -71
-5 0 -9 5 -9 10 0 6 -18 10 -40 10 -22 0 -40 -4 -40 -10 0 -5 11 -10 25 -10
22 0 25 -4 25 -36 0 -42 15 -74 35 -74 7 0 23 -12 34 -26 19 -24 27 -27 80
-25 54 1 62 -1 90 -29 29 -30 43 -80 21 -80 -5 0 -12 -11 -16 -25 -4 -18 -13
-25 -30 -25 -13 0 -24 -6 -24 -13 0 -8 -9 -22 -20 -32 -18 -17 -22 -17 -62 -2
-24 9 -54 15 -68 14 -34 -3 -72 -26 -65 -38 4 -5 1 -8 -7 -7 -16 4 -24 -120
-9 -135 15 -15 14 -30 -1 -21 -10 6 -10 4 0 -7 14 -16 16 -79 2 -79 -5 0 -10
-18 -10 -40 0 -29 -4 -40 -15 -40 -11 0 -15 -11 -15 -37 -1 -29 -7 -42 -25
-56 -22 -15 -25 -16 -25 -2 0 8 -4 15 -9 15 -12 0 -71 -59 -71 -71 0 -5 -18
-9 -40 -9 -22 0 -40 5 -40 10 0 6 -18 10 -40 10 -22 0 -40 5 -40 10 0 6 18 10
40 10 29 0 40 4 40 15 0 11 -11 15 -40 15 -22 0 -40 -4 -40 -10 0 -6 -33 -10
-80 -10 -47 0 -80 -4 -80 -10 0 -5 -18 -10 -40 -10 -36 0 -40 3 -40 25 0 24
-3 25 -55 25 l-55 0 0 -80 c0 -78 -1 -80 -24 -80 -13 0 -26 6 -29 13 -3 9 -11
9 -39 0 -19 -7 -42 -13 -51 -13 -13 0 -17 -9 -17 -39 0 -36 -3 -40 -27 -43
-16 -2 -45 -1 -65 1 -32 3 -38 7 -38 27 0 21 -4 24 -40 24 -29 0 -40 4 -40 15
0 9 -9 15 -25 15 -22 0 -25 -4 -25 -40 0 -29 -4 -40 -15 -40 -8 0 -15 7 -15
15 0 12 -16 15 -82 15 -48 -1 -96 -7 -113 -15 -20 -9 -24 -14 -12 -14 13 -1
17 -10 17 -41 0 -33 -3 -40 -20 -40 -17 0 -20 7 -20 40 l0 40 -45 0 c-33 0
-45 -4 -45 -15 0 -11 -11 -15 -41 -15 -33 0 -40 3 -37 18 2 10 12 17 25 17 13
0 30 11 40 25 9 14 24 30 33 37 12 10 5 12 -42 13 -45 0 -58 3 -58 15 0 11
-11 15 -40 15 -22 0 -40 5 -40 10 0 6 -47 10 -120 10 l-120 0 0 26 c0 25 -50
84 -71 84 -5 0 -9 7 -9 15 0 13 -24 15 -160 15 -100 0 -160 4 -160 10 0 6 -18
10 -40 10 l-40 0 0 55 0 55 -40 0 c-29 0 -40 -4 -40 -15 0 -11 -11 -15 -40
-15 -36 0 -40 -2 -40 -25 0 -22 -4 -25 -40 -25 -29 0 -40 -4 -40 -15 0 -19
-76 -21 -83 -2 -3 6 -6 0 -6 -15 -1 -25 -5 -28 -36 -28 l-35 0 0 70 c0 56 -3
70 -15 70 -12 0 -15 -14 -15 -66 0 -43 -5 -70 -14 -80 -25 -24 -36 -16 -36 26
0 36 -2 40 -25 40 -22 0 -25 -4 -25 -40 0 -29 -4 -40 -15 -40 -11 0 -15 11
-15 40 l0 40 -65 0 -65 0 0 40 c0 36 3 40 25 40 16 0 25 6 25 15 0 12 -16 15
-80 15 l-80 0 0 36 c0 27 -7 41 -25 56 -14 11 -25 25 -25 31 -1 20 -42 64 -47
50 -6 -18 -31 -16 -51 3 -15 15 -15 17 1 29 15 11 15 14 3 24 -17 15 -30 99
-21 140 4 20 13 31 28 33 12 2 26 13 32 26 5 12 13 22 17 22 12 0 9 28 -3 32
-6 2 -13 32 -16 66 -5 52 -3 62 10 62 10 0 17 11 19 27 l4 28 11 -25 10 -24
12 21 c6 12 11 29 11 37 0 9 7 16 15 16 8 0 15 7 15 15 0 10 -10 15 -30 15
-20 0 -30 -5 -30 -15 0 -10 -10 -15 -34 -15 -34 0 -35 -1 -39 -42 -2 -24 -4
-6 -5 40 -2 97 -22 113 -22 17 0 -36 -4 -65 -9 -65 -5 0 -18 11 -29 25 -11 14
-25 25 -31 25 -6 0 -11 17 -11 40 l0 40 -40 0 c-36 0 -40 3 -40 25 0 25 -1 25
-85 25 -63 0 -85 3 -85 13 0 9 -18 13 -65 12 -50 0 -67 -4 -78 -19 -11 -15
-25 -17 -90 -14 -68 3 -77 1 -77 -14 0 -16 -10 -18 -80 -18 -47 0 -80 4 -80
10 0 6 -24 10 -54 10 -56 0 -85 17 -47 27 35 9 24 23 -19 23 l-39 0 -3 78 -3
77 -77 3 -78 3 0 79 c0 64 -3 80 -15 80 -12 0 -15 16 -15 80 0 47 -4 80 -10
80 -5 0 -10 18 -10 40 l0 40 -55 0 -55 0 0 40 0 40 -80 0 -80 0 0 40 0 40 -64
0 -65 0 -3 -37 c-3 -35 -5 -38 -38 -41 -19 -2 -43 -11 -52 -19 -16 -15 -18
-15 -18 0 0 13 -9 17 -40 17 -36 0 -40 3 -40 25 0 23 -4 25 -40 25 -36 0 -40
-2 -40 -25 0 -23 -3 -25 -51 -25 -43 0 -54 4 -71 25 -11 14 -25 25 -31 25 -7
1 -22 9 -34 19 -25 21 -32 84 -12 96 7 5 4 14 -7 26 -23 25 -34 24 -34 -4 0
-14 -6 -24 -15 -24 -11 0 -15 11 -15 39 0 21 -4 38 -10 38 -14 0 -13 67 1 72
17 6 2 43 -18 45 -75 7 -174 7 -203 1 -19 -4 -58 -11 -85 -14 -60 -7 -70 1
-85 67 -5 24 -16 76 -25 114 -9 39 -19 90 -22 115 -3 25 -9 47 -14 50 -4 3
-10 27 -13 54 -3 27 -8 51 -10 54 -8 7 -26 -9 -21 -19 3 -5 -1 -6 -9 -3 -17 6
-23 26 -7 22 10 -3 11 1 11 35 0 18 -2 19 -10 7 -8 -12 -10 -9 -10 13 0 25 -2
27 -15 13 -8 -8 -15 -26 -15 -40 0 -32 -36 -101 -45 -87 -10 18 -85 14 -85 -4
0 -11 -11 -15 -40 -15 -38 0 -40 1 -40 33 0 33 19 78 20 47 0 -13 1 -13 10 0
9 13 10 13 10 0 0 -13 1 -13 10 0 9 13 10 13 10 0 1 -31 20 14 20 48 0 27 -4
32 -23 32 -13 0 -31 8 -40 18 -23 25 -22 99 0 124 16 17 16 20 0 35 -16 16
-17 16 -17 0 0 -13 -9 -17 -40 -17 -22 0 -40 5 -40 10 0 6 16 10 35 10 19 0
35 5 35 10 0 6 -16 10 -35 10 -28 0 -35 4 -35 20 0 11 7 20 15 20 11 0 15 11
15 40 l0 40 -55 0 -55 0 0 65 0 65 -40 0 -40 0 0 40 c0 44 -8 49 -34 21 -16
-17 -16 -25 -6 -57 16 -48 6 -122 -20 -144 -11 -9 -17 -19 -14 -22 8 -9 -114
-21 -127 -13 -6 4 -15 1 -21 -6 -7 -12 -9 -11 -7 1 3 32 -2 35 -55 32 -45 -3
-58 0 -80 19 -14 12 -26 29 -26 36 0 7 -5 13 -11 13 -6 0 -9 7 -5 15 3 9 0 15
-9 15 -8 0 -16 -6 -17 -12 -3 -29 -4 -34 -15 -53 -6 -11 -9 -34 -6 -50 l6 -30
-42 43 c-24 23 -49 42 -57 42 -8 0 -14 7 -14 15 0 11 -11 15 -40 15 -22 0 -40
5 -40 10 0 6 -15 10 -34 10 -44 0 -72 10 -56 20 8 5 1 17 -19 38 -19 19 -31
25 -31 16 0 -8 -4 -14 -10 -14 -5 0 -10 14 -10 30 0 28 -2 30 -40 30 -40 0
-40 0 -40 38 0 25 8 46 25 66 17 20 25 41 25 68 0 33 3 38 24 38 19 0 24 6 29
36 7 41 -1 94 -14 94 -5 0 -9 7 -9 15 0 8 -4 15 -9 15 -12 0 -71 59 -71 70 0
5 6 11 13 14 9 5 9 7 0 12 -23 11 -63 46 -63 55 0 5 9 9 19 9 23 0 37 30 19
42 -21 13 -43 4 -46 -20 -2 -14 -12 -24 -30 -28 -49 -10 -53 -14 -50 -36 2
-17 11 -24 32 -26 21 -3 25 -6 16 -12 -11 -7 -11 -11 -1 -23 8 -11 9 -21 3
-34 -5 -10 -17 -35 -26 -56 -12 -29 -27 -43 -71 -63 -30 -15 -59 -32 -62 -38
-4 -6 -8 -34 -9 -62 -1 -28 -7 -61 -14 -74 -10 -19 -17 -21 -48 -16 -21 3 -42
12 -48 21 -6 8 -16 15 -21 15 -6 0 -17 8 -24 17 -10 11 -10 14 -1 9 6 -4 12
-5 12 -1 0 13 -53 25 -66 14 -19 -16 -21 -1757 -2 -1742 23 18 61 22 82 10 12
-6 48 -12 81 -12 56 0 60 -2 74 -30 15 -31 61 -92 61 -80 0 4 7 2 15 -5 20
-17 19 -27 -4 -40 -22 -11 -51 -4 -51 14 0 6 -14 17 -31 25 -42 18 -176 51
-210 51 l-29 0 0 -1550 0 -1550 1282 0 c705 0 1278 3 1274 7 -4 5 -28 15 -54
23 -39 13 -47 20 -55 50 -5 19 -18 43 -30 53 -15 14 -18 21 -9 24 15 6 17 83
2 83 -7 0 -7 6 -1 18 5 9 7 29 4 43 -3 15 0 36 6 48 11 20 13 20 37 4 22 -14
24 -21 19 -53 -5 -31 -3 -38 18 -49 31 -16 52 -74 48 -133 -2 -46 -1 -48 26
-48 35 0 93 -34 93 -55 0 -24 48 -18 78 10 34 32 59 32 74 0 l11 -25 748 0
c704 0 748 1 752 18 4 16 5 16 6 0 1 -17 225 -18 4556 -18 l4555 0 0 3265 c0
2906 -2 3264 -15 3259 -8 -4 -18 -18 -20 -33 -3 -14 -15 -44 -25 -66 -11 -22
-20 -46 -20 -52 0 -7 -4 -13 -9 -13 -5 0 -12 -8 -16 -19 -3 -10 -19 -21 -35
-25 -16 -3 -40 -17 -52 -31 -33 -38 -64 -32 -115 21 -23 25 -43 50 -43 54 0
15 26 28 69 35 60 10 101 50 101 99 0 25 -5 36 -15 36 -25 0 -64 22 -70 39 -3
9 -19 25 -36 35 -26 16 -35 16 -55 5 -13 -7 -24 -19 -24 -26 0 -30 -52 -59
-84 -47 -13 5 -16 21 -16 80 l0 74 -40 6 c-22 4 -40 10 -40 15 0 15 -14 10
-45 -18z m-405 -492 c0 -17 -12 -41 -21 -41 -10 0 -12 33 -2 43 9 10 23 9 23
-2z m5 -71 c3 -5 1 -10 -4 -10 -6 0 -11 5 -11 10 0 6 2 10 4 10 3 0 8 -4 11
-10z m-85 -54 c0 -2 -7 -9 -15 -16 -12 -10 -15 -10 -15 4 0 9 7 16 15 16 8 0
15 -2 15 -4z m-83 -148 c-3 -7 -5 -2 -5 12 0 14 2 19 5 13 2 -7 2 -19 0 -25z
m353 -913 c22 -14 40 -32 40 -40 0 -8 5 -15 10 -15 6 0 10 -7 10 -15 0 -31
-23 -62 -56 -74 -19 -7 -39 -22 -46 -34 -33 -64 -84 -88 -182 -88 -51 0 -68
18 -74 80 -4 46 -2 54 24 80 16 16 41 43 56 60 15 17 33 28 41 25 8 -3 20 2
27 11 7 8 24 15 39 15 14 0 33 5 41 10 21 14 26 13 70 -15z m-11400 -525 c0
-5 -4 -10 -10 -10 -5 0 -10 5 -10 10 0 6 5 10 10 10 6 0 10 -4 10 -10z m10443
-44 c24 -19 21 -51 -8 -70 -30 -20 -45 -20 -71 -1 -29 20 -21 61 15 74 35 13
43 13 64 -3z m-10143 -111 c0 -8 -5 -15 -11 -15 -6 0 -20 -12 -31 -26 -24 -29
-38 -19 -38 29 0 25 3 27 40 27 29 0 40 -4 40 -15z m11904 -172 c7 -16 -16
-43 -35 -43 -15 0 -14 35 1 47 21 17 27 16 34 -4z m-11694 -120 c-1 -29 -7
-42 -25 -56 -24 -17 -25 -17 -25 3 0 17 -6 20 -40 20 -38 0 -40 2 -40 29 0 28
3 30 43 34 94 8 87 11 87 -30z m7760 -359 c0 -8 -5 -12 -10 -9 -6 4 -8 11 -5
16 9 14 15 11 15 -7z m1404 -98 c5 -82 4 -549 -2 -1098 -1 -58 -5 -88 -12 -88
-6 0 -10 8 -8 18 1 9 -1 23 -6 31 -6 10 -5 12 2 7 7 -4 12 -1 12 9 0 11 -5 15
-15 11 -10 -4 -15 1 -15 14 0 11 -5 29 -12 39 -9 15 -8 22 5 36 21 20 22 35 3
35 -20 0 -31 79 -18 133 10 44 9 95 -4 232 -4 44 -7 97 -6 118 2 20 -2 37 -8
37 -5 0 -10 -4 -10 -9 0 -9 -38 -27 -80 -38 -45 -11 -118 -5 -144 12 -30 20
-32 33 -11 61 9 12 14 42 15 81 0 60 -1 62 -36 82 -19 12 -44 21 -55 21 -23 0
-76 -26 -98 -47 -22 -23 -19 -97 6 -131 25 -33 17 -54 -27 -77 -28 -15 -30
-14 -30 3 0 22 -36 72 -51 72 -6 0 -21 12 -34 26 -20 22 -29 25 -52 19 -15 -5
-31 -8 -35 -7 -5 1 -8 -4 -8 -10 0 -13 -54 -17 -66 -5 -12 11 -44 -13 -44 -34
0 -25 -43 -44 -49 -21 -1 8 -12 24 -22 35 -25 27 -24 40 1 32 28 -9 54 13 39
31 -16 19 -99 19 -99 0 0 -9 -13 -16 -32 -19 l-33 -3 33 -8 c71 -18 9 -56 -80
-48 -46 4 -48 5 -47 36 0 17 3 25 6 19 2 -7 20 -13 39 -13 30 0 34 3 34 25 0
23 -4 25 -40 25 -22 0 -40 5 -40 10 0 6 -18 10 -40 10 -29 0 -40 4 -40 15 0
11 -11 15 -40 15 -71 0 -43 18 40 25 44 4 80 11 80 16 0 5 18 9 40 9 29 0 40
4 40 15 0 8 -7 15 -17 15 -15 0 -15 2 1 19 13 14 37 21 84 26 92 9 122 15 122
26 0 5 -13 9 -30 9 -31 0 -41 16 -15 26 17 7 21 54 5 54 -6 0 -21 -6 -33 -14
-12 -8 -33 -13 -47 -11 -14 1 -33 -5 -43 -13 -12 -11 -21 -13 -25 -6 -9 15
-154 30 -221 24 -51 -5 -55 -7 -63 -35 -5 -19 -3 -55 6 -100 8 -39 13 -99 11
-135 -13 -214 -16 -268 -15 -293 0 -16 -2 -33 -6 -38 -8 -14 -7 -256 1 -270 8
-11 8 -41 1 -269 -2 -94 -8 -146 -15 -148 -14 -5 -15 -32 -1 -32 6 0 10 -4 10
-10 0 -5 -7 -7 -15 -4 -13 5 -12 -1 2 -40 10 -25 23 -46 30 -46 7 0 13 4 13 9
0 4 82 9 183 9 100 0 229 2 287 2 139 2 140 2 134 -13 -3 -8 4 -13 20 -13 13
0 22 5 20 11 -5 11 41 35 68 35 10 0 18 -6 19 -12 0 -10 2 -10 6 0 2 7 22 12
44 12 30 0 39 -4 40 -17 1 -17 2 -17 6 0 3 12 16 18 41 19 20 1 60 3 87 5 116
7 126 4 132 -39 2 -13 14 -33 28 -45 15 -13 25 -33 25 -48 l0 -26 89 2 c49 1
94 -2 100 -5 6 -4 11 -30 11 -57 l0 -51 -137 9 c-198 12 -341 4 -380 -20 -7
-4 -105 -10 -218 -12 -113 -2 -209 -6 -214 -9 -5 -3 -102 -8 -217 -11 -115 -3
-217 -8 -226 -11 -10 -3 -26 -3 -37 1 -17 5 -18 19 -20 148 -1 78 -3 183 -5
232 -2 50 -3 299 -2 555 2 662 -2 852 -16 861 -7 4 0 12 18 22 32 16 242 28
476 28 75 0 140 3 143 8 3 5 18 6 33 2 29 -8 30 -8 276 3 224 10 308 15 314
20 2 3 44 5 92 4 l87 -1 7 -101z m-2149 -34 c-3 -3 -11 0 -18 7 -9 10 -8 11 6
5 10 -3 15 -9 12 -12z m4105 -121 c22 -42 1 -120 -33 -121 -16 -1 -49 -30 -66
-60 -62 -109 -63 -112 -57 -162 4 -27 11 -59 17 -71 10 -23 8 -29 -37 -104
-13 -23 -24 -31 -36 -27 -12 3 -18 0 -18 -10 0 -37 -90 -43 -117 -8 -19 24
-17 28 42 86 50 48 55 57 55 95 0 36 -6 48 -36 76 -33 32 -35 37 -29 75 5 29
15 46 38 62 44 30 48 38 42 79 -8 45 4 55 71 61 32 3 62 13 79 26 34 27 71 28
85 3z m-2842 -231 c-10 -6 -25 -7 -40 -1 -20 9 -18 10 17 10 31 0 36 -2 23 -9z
m-268 -10 c11 -7 11 -10 2 -10 -7 0 -10 -5 -7 -10 3 -6 -6 -15 -20 -20 -36
-14 -35 -14 -35 20 0 24 4 30 23 30 12 0 29 -5 37 -10z m2649 -186 c12 -15 21
-32 21 -39 0 -13 -66 -85 -78 -85 -7 0 -17 -16 -47 -80 -8 -19 -22 -41 -29
-50 -8 -8 -16 -26 -18 -39 -2 -19 -14 -28 -48 -40 -25 -9 -46 -19 -48 -23 -2
-5 -9 -8 -15 -8 -7 0 -32 -18 -57 -40 l-45 -40 -92 0 c-73 0 -93 3 -93 14 0
17 -24 28 -45 20 -15 -6 -19 -17 -16 -41 1 -7 -4 -13 -12 -13 -30 0 -47 -66
-47 -184 0 -125 6 -110 -72 -180 -16 -14 -28 -28 -28 -32 0 -18 -53 -73 -79
-82 -29 -10 -32 -8 -61 31 -33 46 -34 72 0 131 9 17 20 45 23 61 20 97 20 93
-5 117 -38 35 -41 65 -10 86 43 29 92 82 92 100 0 10 14 32 30 50 17 18 30 38
30 43 0 6 -18 28 -41 50 -35 33 -40 43 -34 68 10 47 43 68 96 63 9 -1 27 -22
40 -47 13 -25 32 -48 42 -51 21 -7 65 20 74 44 11 31 36 52 75 62 21 6 38 15
38 21 0 5 16 17 35 25 34 14 37 13 73 -11 20 -14 46 -25 58 -25 26 0 60 36 75
79 17 48 61 71 136 71 55 0 64 -3 82 -26z m-3409 -114 c0 -5 -2 -10 -4 -10 -3
0 -8 5 -11 10 -3 6 -1 10 4 10 6 0 11 -4 11 -10z m-5768 -10 c30 0 41 -36 21
-70 -21 -37 -44 -38 -103 -6 -51 27 -61 45 -31 53 12 3 21 12 21 20 0 12 8 14
38 9 20 -3 45 -6 54 -6z m5458 -40 c0 -29 -4 -40 -15 -40 -11 0 -15 11 -15 40
0 29 4 40 15 40 11 0 15 -11 15 -40z m412 -67 c1 -50 2 -52 5 -15 4 39 6 42
34 42 27 0 29 -3 29 -35 0 -19 5 -35 10 -35 13 0 13 -11 0 -30 -9 -13 -12 -12
-25 4 -13 17 -15 17 -21 3 -3 -10 -12 -17 -19 -17 -15 0 -25 31 -25 78 0 22
-5 32 -15 32 -8 0 -15 7 -15 15 0 8 9 15 20 15 17 0 20 -7 22 -57z m-42 -38
c0 -8 -7 -15 -16 -15 -14 0 -14 3 -4 15 7 8 14 15 16 15 2 0 4 -7 4 -15z
m-482 -20 c3 -3 -3 -12 -14 -20 -22 -16 -38 -20 -29 -6 3 5 0 11 -7 14 -7 2
-2 2 12 0 30 -5 16 13 -15 20 -11 2 -5 3 14 1 18 -2 36 -6 39 -9z m-158 -10
c0 -11 -11 -15 -40 -15 -29 0 -40 4 -40 15 0 11 11 15 40 15 29 0 40 -4 40
-15z m-7177 -27 c35 -25 37 -75 5 -102 -27 -23 -91 -25 -113 -2 -9 9 -23 16
-31 16 -15 0 -28 38 -22 66 9 47 106 60 161 22z m7372 23 c3 -5 -2 -17 -11
-25 -14 -15 -13 -16 8 -16 17 0 19 -3 9 -9 -11 -7 -10 -10 5 -14 11 -3 39 -10
64 -17 46 -12 98 -60 65 -60 -8 0 -15 5 -15 11 0 5 -4 8 -10 4 -5 -3 -7 -11
-4 -18 2 -7 -5 -22 -16 -32 -20 -18 -22 -18 -31 -3 -8 15 -13 14 -51 -4 -24
-11 -44 -24 -46 -29 -2 -5 -7 -9 -12 -9 -11 0 -70 -59 -70 -71 0 -5 -7 -9 -15
-9 -11 0 -15 -11 -15 -40 0 -33 -4 -40 -19 -40 -16 0 -20 11 -26 76 -4 41 -5
78 -2 80 3 3 14 6 26 7 17 1 21 8 20 32 -1 29 -1 29 -9 5 -7 -22 -8 -20 -7 13
1 26 6 37 17 37 11 0 12 2 2 9 -20 12 7 30 40 27 15 -2 25 1 22 6 -3 5 0 9 7
7 31 -4 39 2 39 31 0 17 6 37 13 45 15 17 14 17 22 6z m445 -16 c0 -14 -21
-16 -58 -6 -12 3 11 17 32 19 18 1 26 -3 26 -13z m-540 -9 c0 -3 -4 -8 -10
-11 -5 -3 -10 -1 -10 4 0 6 5 11 10 11 6 0 10 -2 10 -4z m-260 -141 l0 -55
-40 0 -40 0 0 55 0 55 40 0 40 0 0 -55z m740 40 c0 -8 -4 -15 -10 -15 -5 0
-10 7 -10 15 0 8 5 15 10 15 6 0 10 -7 10 -15z m-450 -182 c0 -10 -32 -43 -42
-43 -4 0 -8 11 -8 25 0 20 5 25 25 25 14 0 25 -3 25 -7z m2337 -55 c-3 -8 -6
-5 -6 6 -1 11 2 17 5 13 3 -3 4 -12 1 -19z m14 -55 c-9 -16 -10 -14 -11 12 0
21 3 26 11 18 8 -8 8 -16 0 -30z m-6967 -85 c17 -27 52 -153 62 -223 4 -27 13
-59 20 -70 7 -11 17 -51 23 -90 6 -38 15 -92 21 -120 12 -60 8 -75 -22 -73
-19 1 -45 -5 -118 -27 -3 -1 -18 -5 -35 -9 -65 -17 -171 -50 -180 -57 -14 -9
-55 7 -55 23 0 7 -3 30 -6 51 -7 37 -7 37 24 31 18 -4 53 1 84 10 29 9 62 18
73 19 11 2 29 8 40 14 11 6 46 16 78 22 32 6 63 13 69 17 15 9 1 114 -18 135
-8 9 -20 45 -26 80 -7 35 -15 66 -19 69 -4 3 -10 23 -13 45 -17 123 -18 125
-42 125 -13 0 -58 -11 -101 -24 -43 -13 -98 -27 -122 -30 -83 -12 -111 -41
-111 -113 0 -17 -4 -35 -10 -38 -6 -4 -10 6 -10 22 0 15 -7 47 -15 70 -24 68
-18 74 91 93 71 12 255 58 262 65 13 12 43 3 56 -17z m6966 -24 c0 -8 -4 -12
-10 -9 -5 3 -10 10 -10 16 0 5 5 9 10 9 6 0 10 -7 10 -16z m-22 -48 c-10 -7
-18 -18 -18 -24 0 -6 8 -13 18 -15 10 -3 7 -5 -10 -6 -20 -1 -26 3 -22 14 4 9
-1 18 -12 22 -16 6 -16 7 2 14 10 4 28 8 39 8 19 0 19 0 3 -13z m-133 -36 c4
-6 -6 -10 -22 -10 -22 0 -25 2 -13 10 19 12 27 12 35 0z m177 -77 c8 -10 6
-13 -6 -13 -12 0 -16 9 -15 43 2 34 3 36 6 12 3 -16 9 -36 15 -42z m827 -61
c6 -10 8 -28 5 -39 -3 -11 2 -27 11 -36 10 -11 14 -26 11 -39 -3 -13 -3 -17 0
-10 10 22 23 13 30 -23 3 -19 10 -38 15 -41 5 -3 9 -23 9 -45 0 -28 4 -39 15
-39 8 0 15 -5 15 -11 0 -6 -7 -17 -15 -25 -27 -27 -17 -51 19 -45 17 3 36 -22
36 -48 0 -22 -7 -30 -36 -41 -20 -8 -40 -22 -45 -32 -5 -10 -16 -18 -24 -18
-8 0 -15 -4 -15 -10 0 -5 -11 -10 -25 -10 -14 0 -28 -7 -32 -16 -3 -8 -11 -13
-18 -10 -7 2 -21 -4 -31 -15 -9 -10 -13 -19 -9 -19 4 0 -6 -13 -23 -30 -18
-16 -36 -30 -40 -30 -5 0 -17 -9 -27 -20 -10 -11 -26 -20 -36 -20 -18 0 -79
-54 -79 -71 0 -14 -27 -11 -33 5 -6 15 -47 29 -47 15 0 -5 -8 -9 -17 -9 -10 0
-33 -9 -51 -20 -18 -11 -46 -20 -62 -20 -19 0 -30 -5 -30 -13 0 -8 -8 -21 -17
-30 -22 -19 -132 -21 -140 -2 -3 8 -34 16 -84 20 l-79 7 0 39 c0 36 2 38 38
45 47 10 52 11 79 12 12 1 34 13 49 27 32 29 46 31 70 8 16 -16 18 -16 32 5 8
12 23 22 33 22 11 0 19 4 19 9 0 5 14 12 30 16 34 7 87 32 94 44 3 4 6 27 7
52 2 24 7 47 12 51 6 3 33 4 61 1 49 -5 53 -3 89 33 40 41 43 50 25 89 -10 22
-9 29 8 45 10 10 32 20 49 22 46 5 85 55 85 111 0 26 -5 47 -12 49 -20 7 -13
64 13 96 27 35 54 40 68 14z m-8169 -46 c0 -24 -17 -28 -23 -6 -3 13 0 20 9
20 8 0 14 -6 14 -14z m7767 -8 c-3 -8 -6 -5 -6 6 -1 11 2 17 5 13 3 -3 4 -12
1 -19z m-2143 -127 c21 -23 11 -32 -60 -55 -80 -26 -114 4 -56 51 34 28 92 30
116 4z m-5574 -33 c0 -5 -4 -8 -10 -8 -5 0 -10 10 -10 23 0 18 2 19 10 7 5 -8
10 -18 10 -22z m0 -38 c0 -11 -2 -20 -4 -20 -2 0 -6 9 -9 20 -3 11 -1 20 4 20
5 0 9 -9 9 -20z m7090 -51 c46 -24 68 -55 51 -72 -6 -6 -11 -21 -11 -34 0 -13
-4 -23 -10 -23 -5 0 -10 5 -10 11 0 6 -22 -10 -50 -37 -46 -45 -64 -84 -40
-84 6 0 10 -5 10 -11 0 -6 7 -17 15 -25 20 -20 20 -94 1 -94 -8 0 -16 -4 -18
-9 -1 -6 -25 -16 -53 -22 -27 -7 -59 -21 -71 -31 -11 -10 -32 -18 -47 -18 -15
0 -27 -4 -27 -9 0 -5 -13 -14 -29 -19 -31 -11 -54 -46 -66 -99 -3 -18 -11 -33
-16 -33 -5 0 -9 -9 -9 -21 0 -11 -8 -33 -18 -47 -10 -15 -24 -42 -31 -59 -15
-38 -14 -38 -45 -18 -13 9 -53 18 -89 22 -71 6 -97 -4 -97 -38 0 -18 -18 -26
-69 -32 -21 -2 -27 5 -43 53 -11 30 -24 59 -29 65 -5 5 -9 19 -9 31 0 43 115
87 171 66 38 -15 78 -4 85 24 8 32 -2 69 -25 91 -39 37 -43 60 -26 120 18 63
44 89 95 99 96 17 150 59 150 116 0 48 50 88 109 88 26 0 52 -5 58 -11 8 -8
22 -1 49 24 72 63 85 67 144 36z m-10292 -74 c-3 -3 -9 2 -12 12 -6 14 -5 15
5 6 7 -7 10 -15 7 -18z m5302 21 c0 -2 -7 -9 -15 -16 -12 -10 -15 -10 -15 4 0
9 7 16 15 16 8 0 15 -2 15 -4z m1600 0 c0 -2 -7 -9 -15 -16 -12 -10 -15 -10
-15 4 0 9 7 16 15 16 8 0 15 -2 15 -4z m-110 -31 c0 -11 -11 -15 -40 -15 -29
0 -40 4 -40 15 0 11 11 15 40 15 29 0 40 -4 40 -15z m273 0 c1 -5 -6 -11 -15
-13 -11 -2 -18 3 -18 13 0 17 30 18 33 0z m-6981 -25 c7 -11 19 -20 27 -20 11
0 12 -3 4 -11 -13 -13 -48 -8 -48 8 0 6 -3 15 -7 19 -11 10 -10 24 2 24 5 0
15 -9 22 -20z m1238 -20 c12 -22 -5 -60 -27 -60 -26 0 -63 24 -63 41 0 38 72
53 90 19z m5290 -40 c0 -4 -13 -13 -30 -19 -29 -10 -30 -9 -30 19 0 28 1 29
30 19 17 -6 30 -15 30 -19z m4063 -29 c-1 -24 -4 -45 -6 -47 -4 -5 -68 14 -86
25 -11 7 -10 15 9 41 18 25 28 31 54 28 30 -3 31 -5 29 -47z m-10575 -9 c2 -7
-2 -10 -12 -6 -9 3 -16 11 -16 16 0 13 23 5 28 -10z m2890 -245 c16 -33 9 -47
-19 -40 -15 4 -20 12 -16 28 3 16 0 22 -10 18 -7 -3 -13 1 -13 9 0 26 44 14
58 -15z m8122 -28 c0 -5 3 -8 8 -8 20 3 68 -2 78 -9 6 -4 14 -22 17 -40 6 -31
4 -34 -31 -49 -20 -9 -52 -17 -69 -17 -18 -1 -38 -7 -45 -14 -14 -14 -104 -16
-113 -2 -10 17 -54 11 -75 -10 -22 -22 -40 -26 -40 -9 0 5 -4 7 -10 4 -5 -3
-10 3 -10 13 0 11 -7 22 -15 26 -22 8 -18 29 8 42 12 5 40 20 62 31 55 29 84
41 123 50 40 10 112 5 112 -8z m-290 -45 c0 -2 -7 -4 -15 -4 -8 0 -15 4 -15
10 0 5 7 7 15 4 8 -4 15 -8 15 -10z m-10340 -46 c0 -5 -6 -8 -14 -8 -18 0 -29
27 -13 33 12 4 27 -10 27 -25z m10310 -28 c0 -5 -4 -10 -10 -10 -5 0 -10 5
-10 10 0 6 5 10 10 10 6 0 10 -4 10 -10z m-8995 -20 c13 -15 31 -20 65 -20 56
0 70 -12 70 -61 0 -45 20 -65 49 -50 11 6 36 11 55 11 31 0 40 -6 66 -42 18
-25 28 -48 24 -57 -3 -9 -8 -33 -11 -53 -6 -38 -4 -40 68 -102 19 -16 18 -17
-11 -57 -16 -23 -27 -45 -24 -50 6 -11 -41 -23 -56 -14 -5 3 -8 11 -5 16 4 5
2 9 -3 9 -5 0 -15 19 -22 43 -7 23 -24 54 -38 69 -13 14 -21 31 -18 37 4 6 2
11 -3 11 -6 0 -11 6 -11 14 0 8 -18 21 -39 29 -22 9 -42 21 -46 27 -3 5 -14
10 -25 10 -13 0 -27 19 -48 64 -32 68 -67 99 -83 75 -8 -13 -13 -5 -10 14 0 4
-7 7 -16 7 -13 0 -14 3 -5 12 7 7 12 21 12 33 0 23 17 45 35 45 7 0 20 -9 30
-20z m7495 -106 c0 -8 -7 -14 -15 -14 -15 0 -21 21 -9 33 10 9 24 -2 24 -19z
m-5425 -4 c9 -15 -4 -50 -20 -50 -7 0 -21 7 -30 16 -12 12 -13 19 -4 30 13 16
45 19 54 4z m6413 -149 c13 -1 16 -29 6 -55 -3 -9 -33 -32 -66 -52 -49 -30
-65 -35 -93 -30 -39 8 -43 21 -21 65 23 43 100 83 146 75 8 -1 21 -3 28 -3z
m-578 -60 c0 -17 -12 -41 -21 -41 -5 0 -9 11 -9 25 0 16 6 25 15 25 8 0 15 -4
15 -9z m-1104 -54 c16 -16 0 -57 -26 -64 -11 -3 -24 -20 -30 -38 -17 -51 -33
-60 -111 -56 -44 1 -69 -2 -69 -8 0 -6 -11 -11 -24 -11 -17 0 -26 -7 -30 -24
-4 -15 -17 -28 -36 -34 -28 -10 -32 -8 -57 24 -31 41 -25 62 23 77 38 13 64
36 64 58 0 36 29 51 84 44 48 -6 53 -5 81 25 27 29 34 31 75 26 24 -4 50 -12
56 -19z m1062 11 c15 -15 16 -70 1 -85 -5 -5 -16 -32 -23 -59 -10 -39 -10 -57
0 -89 7 -22 13 -61 13 -88 1 -43 -2 -49 -31 -68 -27 -17 -43 -19 -88 -14 -30
3 -83 9 -117 12 -35 3 -63 10 -63 14 0 5 -18 9 -40 9 -22 0 -40 -4 -40 -10 0
-5 -9 -10 -20 -10 -10 0 -24 -9 -30 -20 -6 -11 -16 -20 -23 -19 -31 4 -55 -3
-74 -20 -31 -29 -58 -31 -57 -3 0 12 -3 22 -8 22 -5 0 -6 5 -3 10 3 6 14 10
25 10 10 0 21 7 24 15 3 9 18 20 34 26 25 8 28 15 29 52 2 70 9 82 53 85 29 2
45 -3 60 -18 11 -11 20 -22 20 -25 -1 -15 19 -31 52 -43 53 -18 122 -7 145 24
10 13 21 24 26 24 30 0 85 100 55 100 -20 1 -78 58 -78 77 0 42 14 63 53 82
48 23 88 26 105 9z m-8325 -89 c27 -48 23 -60 -15 -47 -65 23 -76 32 -67 56
13 35 60 30 82 -9z m1816 -19 c22 0 41 -4 43 -10 2 -5 25 -14 53 -19 30 -6 56
-18 66 -30 20 -25 65 -27 93 -6 24 18 55 19 81 2 11 -7 47 -14 80 -16 70 -3
87 -15 88 -65 1 -30 9 -44 45 -78 40 -37 43 -44 37 -76 -5 -29 -2 -39 22 -64
35 -37 77 -60 89 -48 8 8 44 14 71 11 21 -2 25 -40 6 -72 l-18 -31 -93 4 c-91
3 -95 4 -118 33 -13 17 -24 41 -24 55 0 14 -9 33 -20 43 -11 9 -20 24 -20 32
0 8 -4 15 -8 15 -4 0 -14 20 -21 45 -7 25 -19 45 -25 45 -7 0 -27 11 -45 25
-30 22 -36 23 -60 11 -64 -33 -201 -59 -201 -38 0 4 -18 18 -40 32 -23 14 -40
32 -40 42 0 19 -65 54 -123 65 -34 7 -50 33 -41 70 10 42 32 56 60 38 13 -8
41 -15 63 -15z m8251 22 c0 -18 -33 -52 -51 -52 -27 0 -25 38 4 50 28 11 47
12 47 2z m-10013 -68 c-3 -3 -12 -4 -19 -1 -8 3 -5 6 6 6 11 1 17 -2 13 -5z
m6281 -59 c30 -20 44 -23 67 -17 40 11 69 5 90 -18 32 -35 -8 -80 -70 -80 -13
0 -26 -4 -29 -8 -3 -5 -22 -9 -42 -10 -20 -1 -44 -8 -53 -15 -22 -19 -82 -31
-162 -31 -50 -1 -72 -6 -87 -19 -12 -11 -25 -16 -31 -13 -5 4 -24 -23 -42 -59
-17 -36 -36 -62 -42 -58 -5 3 -7 1 -4 -4 10 -16 -65 -85 -83 -77 -8 4 -26 9
-40 12 -13 3 -33 14 -45 25 -29 27 -59 37 -116 37 -42 0 -49 -3 -49 -20 0 -11
-4 -20 -10 -20 -5 0 -10 -9 -10 -19 0 -31 -62 -47 -162 -43 -85 3 -88 4 -95
29 -4 20 -1 31 17 45 25 20 60 24 76 8 14 -14 83 15 106 43 10 12 18 36 18 54
0 21 7 37 22 47 25 18 74 21 83 6 3 -5 17 -10 31 -10 13 0 24 -4 24 -9 0 -5 8
-8 17 -7 9 0 23 -10 30 -25 10 -21 18 -24 47 -21 20 2 46 15 59 28 13 13 34
27 48 32 18 8 28 24 41 70 18 62 24 67 84 78 14 3 45 11 67 19 23 8 60 15 82
15 28 1 52 10 80 30 22 15 41 29 43 29 1 1 19 -10 40 -24z m-6753 -18 c10 -8
15 -19 11 -25 -11 -18 -56 -15 -56 3 0 8 5 15 11 15 5 0 7 5 4 10 -9 14 8 12
30 -3z m1983 -13 c2 -1 -1 -11 -7 -22 -11 -20 -73 -38 -91 -27 -18 11 -10 45
13 54 18 8 74 4 85 -5z m5382 -28 c0 -3 -4 -8 -10 -11 -5 -3 -10 -1 -10 4 0 6
5 11 10 11 6 0 10 -2 10 -4z m1 -52 c20 -25 26 -60 16 -101 -13 -50 -49 -95
-71 -87 -8 3 -17 1 -21 -5 -8 -14 -55 -14 -55 0 0 7 -20 10 -52 9 -108 -5
-117 6 -61 68 34 37 44 42 81 42 48 0 82 14 82 33 0 22 30 57 49 57 10 0 25
-7 32 -16z m-3794 -116 c37 -26 41 -43 16 -70 -38 -42 -133 -6 -118 45 8 26
32 47 54 47 8 0 30 -10 48 -22z"/>
<path d="M12537 4954 c-8 -8 3 -34 14 -34 11 0 12 27 0 34 -4 3 -11 3 -14 0z"/>
<path d="M12460 4890 c0 -5 5 -10 10 -10 6 0 10 5 10 10 0 6 -4 10 -10 10 -5
0 -10 -4 -10 -10z"/>
<path d="M10017 3148 c-6 -21 -2 -36 7 -27 10 11 16 49 8 49 -5 0 -12 -10 -15
-22z"/>
<path d="M10861 2784 c0 -11 3 -14 6 -6 3 7 2 16 -1 19 -3 4 -6 -2 -5 -13z"/>
<path d="M10860 2551 c0 -6 5 -13 10 -16 6 -3 10 1 10 9 0 9 -4 16 -10 16 -5
0 -10 -4 -10 -9z"/>
<path d="M10495 2110 c3 -5 10 -10 16 -10 5 0 9 5 9 10 0 6 -7 10 -16 10 -8 0
-12 -4 -9 -10z"/>
<path d="M10600 2110 c0 -5 9 -10 20 -10 11 0 20 5 20 10 0 6 -9 10 -20 10
-11 0 -20 -4 -20 -10z"/>
<path d="M10365 2091 c-6 -5 -19 -11 -30 -14 -11 -3 0 -5 24 -6 38 -1 42 1 31
14 -15 18 -13 17 -25 6z"/>
<path d="M10041 2085 c9 -9 129 -12 123 -4 -3 5 -33 9 -66 9 -34 0 -59 -2 -57
-5z"/>
<path d="M10480 1950 c0 -53 6 -58 58 -44 18 5 22 13 22 50 l0 44 -40 0 -40 0
0 -50z"/>
<path d="M10640 1906 c0 -10 9 -16 21 -16 24 0 21 23 -4 28 -10 2 -17 -3 -17
-12z"/>
<path d="M10800 1881 c0 -5 9 -7 20 -4 11 3 20 7 20 9 0 2 -9 4 -20 4 -11 0
-20 -4 -20 -9z"/>
<path d="M1228 6563 c7 -3 16 -2 19 1 4 3 -2 6 -13 5 -11 0 -14 -3 -6 -6z"/>
<path d="M1100 6490 c0 -5 5 -10 11 -10 5 0 7 5 4 10 -3 6 -8 10 -11 10 -2 0
-4 -4 -4 -10z"/>
<path d="M1280 6490 c0 -5 -18 -10 -40 -10 -29 0 -40 -4 -40 -15 0 -11 11 -15
40 -15 29 0 40 4 40 15 0 8 7 15 16 15 8 0 12 5 9 10 -3 6 -10 10 -16 10 -5 0
-9 -4 -9 -10z"/>
<path d="M1195 6390 c4 -6 11 -8 16 -5 14 9 11 15 -7 15 -8 0 -12 -5 -9 -10z"/>
<path d="M1260 6390 c0 -5 5 -10 10 -10 6 0 10 5 10 10 0 6 -4 10 -10 10 -5 0
-10 -4 -10 -10z"/>
<path d="M1638 6323 c6 -2 18 -2 25 0 6 3 1 5 -13 5 -14 0 -19 -2 -12 -5z"/>
<path d="M1550 6312 c0 -10 33 -42 43 -42 4 0 7 11 7 25 0 20 -5 25 -25 25
-14 0 -25 -4 -25 -8z"/>
<path d="M1390 6296 c0 -2 7 -7 16 -10 8 -3 12 -2 9 4 -6 10 -25 14 -25 6z"/>
<path d="M1548 6233 c7 -3 16 -2 19 1 4 3 -2 6 -13 5 -11 0 -14 -3 -6 -6z"/>
<path d="M1713 6223 c9 -2 23 -2 30 0 6 3 -1 5 -18 5 -16 0 -22 -2 -12 -5z"/>
<path d="M12226 6094 c-4 -9 -4 -19 -1 -22 2 -3 7 3 11 12 4 9 4 19 1 22 -2 3
-7 -3 -11 -12z"/>
<path d="M12271 6094 c0 -11 3 -14 6 -6 3 7 2 16 -1 19 -3 4 -6 -2 -5 -13z"/>
<path d="M12220 6010 c0 -5 5 -10 10 -10 6 0 10 5 10 10 0 6 -4 10 -10 10 -5
0 -10 -4 -10 -10z"/>
<path d="M11145 5834 c-63 -132 -89 -180 -106 -200 -11 -11 -19 -25 -19 -31 0
-6 -15 -38 -34 -72 -19 -33 -38 -70 -42 -83 -4 -13 -20 -46 -35 -75 -16 -29
-32 -60 -37 -70 -5 -10 -23 -47 -41 -82 -20 -41 -28 -68 -22 -74 5 -5 34 -16
63 -24 29 -8 67 -19 83 -24 17 -4 59 -16 95 -24 36 -9 88 -23 115 -32 28 -8
77 -17 111 -20 l60 -5 28 61 c15 33 31 61 37 61 5 0 9 7 9 15 0 21 49 122 66
136 8 6 14 19 14 28 0 16 32 84 62 131 8 14 18 46 21 72 6 47 21 78 74 158 44
66 60 110 43 120 -7 4 -76 20 -154 35 -216 40 -237 44 -302 51 l-61 6 -28 -58z"/>
<path d="M11800 5850 c0 -5 5 -10 10 -10 6 0 10 5 10 10 0 6 -4 10 -10 10 -5
0 -10 -4 -10 -10z"/>
<path d="M3505 5380 c-3 -5 -1 -10 4 -10 6 0 11 5 11 10 0 6 -2 10 -4 10 -3 0
-8 -4 -11 -10z"/>
<path d="M9570 5380 c0 -5 5 -10 10 -10 6 0 10 5 10 10 0 6 -4 10 -10 10 -5 0
-10 -4 -10 -10z"/>
<path d="M3495 5350 c-3 -5 -1 -10 4 -10 6 0 11 5 11 10 0 6 -2 10 -4 10 -3 0
-8 -4 -11 -10z"/>
<path d="M9581 5343 c-7 -8 -11 -15 -10 -16 2 -1 14 -8 27 -15 12 -7 22 -8 22
-3 0 5 9 11 21 14 12 3 19 11 17 18 -6 18 -61 20 -77 2z"/>
<path d="M3705 5319 c-22 -12 -47 -27 -55 -34 -8 -8 -27 -16 -42 -20 -14 -4
-34 -15 -44 -26 -9 -10 -23 -19 -31 -19 -7 0 -21 -4 -31 -9 -15 -9 -50 -22
-62 -25 -34 -9 -109 -44 -123 -58 -10 -10 -29 -18 -42 -18 -14 0 -25 -4 -25
-9 0 -10 -120 -66 -136 -63 -6 1 -17 -5 -24 -13 -7 -8 -21 -15 -31 -15 -11 0
-19 -4 -19 -10 0 -5 -18 -14 -41 -20 -23 -6 -38 -14 -35 -17 10 -10 -36 -43
-61 -43 -31 0 -59 -15 -67 -35 -7 -20 34 -95 52 -95 7 0 17 -11 22 -25 5 -13
18 -30 30 -37 11 -7 20 -18 20 -25 0 -7 4 -13 10 -13 5 0 19 -18 30 -40 11
-22 25 -40 30 -40 6 0 10 -6 10 -14 0 -8 9 -17 19 -21 11 -3 26 -24 35 -45 9
-22 23 -40 31 -40 8 0 15 -4 15 -9 0 -4 13 -23 29 -42 25 -28 31 -31 36 -17 4
9 3 23 -1 29 -5 9 -2 10 10 6 10 -4 20 -7 22 -7 11 0 2 -30 -8 -30 -7 -1 4
-16 25 -34 25 -23 35 -39 31 -50 -4 -11 -1 -16 10 -16 9 0 16 -8 16 -19 0 -11
11 -33 25 -48 16 -17 25 -22 24 -13 -3 27 2 55 8 43 2 -7 20 -13 38 -13 18 0
35 6 38 13 3 8 10 7 26 -7 32 -29 26 -36 -33 -36 -47 0 -54 -3 -60 -22 -10
-39 -7 -54 19 -84 14 -16 25 -35 25 -41 0 -7 5 -13 10 -13 6 0 10 -5 10 -10 0
-6 11 -27 25 -48 21 -31 31 -59 34 -94 1 -5 8 -8 16 -8 9 0 31 -16 50 -36 34
-35 45 -51 25 -39 -14 8 0 -27 15 -40 7 -6 22 -29 34 -52 25 -50 58 -64 96
-39 13 9 36 16 50 16 14 0 25 6 25 13 0 8 25 27 55 42 30 16 55 35 55 42 0 8
12 13 29 13 17 0 36 8 43 18 7 9 24 18 38 20 13 1 34 11 45 22 12 11 30 20 41
20 24 0 124 57 124 70 0 6 9 10 20 10 11 0 20 4 20 8 0 5 18 17 40 27 22 10
45 24 51 32 6 7 22 13 34 13 12 0 28 7 35 15 7 8 19 15 26 15 8 0 14 5 14 10
0 6 6 10 14 10 8 0 21 6 28 13 8 6 27 20 43 29 16 9 31 20 32 25 2 5 -11 25
-28 44 -38 42 -89 114 -89 127 0 5 -11 15 -25 22 -14 7 -25 22 -25 32 0 10 -7
18 -15 18 -8 0 -15 9 -15 20 0 11 -6 20 -13 20 -16 0 -57 53 -57 74 0 8 -6 21
-14 29 -8 8 -22 31 -30 52 -11 26 -20 35 -31 31 -10 -3 -15 1 -15 13 0 12 -12
25 -29 32 -17 8 -35 23 -42 35 -6 13 -22 25 -35 28 -24 6 -32 30 -14 41 19 12
10 33 -36 87 -40 46 -59 74 -98 147 -5 9 -24 28 -42 41 -18 14 -35 34 -38 45
-3 11 -29 46 -59 78 -29 31 -57 72 -62 90 -12 40 -29 43 -80 16z m-466 -480
c-19 -12 -24 -2 -8 17 9 11 14 13 17 4 3 -7 -2 -16 -9 -21z m857 -359 c11 0
14 -17 14 -80 0 -47 -4 -80 -10 -80 -5 0 -11 10 -11 23 -2 19 -2 20 -6 2 -2
-11 -14 -25 -27 -31 -34 -16 -56 4 -56 50 0 35 1 36 40 36 l40 0 0 40 c0 30
-4 40 -16 40 -14 0 -15 2 -3 17 13 15 14 15 17 0 2 -10 10 -17 18 -17z m144
-7 c0 -8 -25 -30 -47 -41 -17 -9 -22 -9 -27 4 -14 35 -7 44 34 42 22 -1 40 -3
40 -5z m20 -58 c10 -12 10 -15 -4 -15 -9 0 -16 7 -16 15 0 8 2 15 4 15 2 0 9
-7 16 -15z m-500 -55 c0 -5 18 -10 40 -10 22 0 40 -4 40 -10 0 -9 -14 -14 -32
-11 -5 0 -8 -3 -8 -9 0 -5 -7 -10 -15 -10 -8 0 -15 4 -15 8 0 4 -12 7 -27 6
-51 -3 -73 32 -25 39 15 2 30 5 35 6 4 0 7 -3 7 -9z m-327 -37 c-7 -2 -21 -2
-30 0 -10 3 -4 5 12 5 17 0 24 -2 18 -5z m676 -88 c-15 -15 -25 -20 -28 -12
-2 7 -9 16 -15 20 -7 6 -5 7 5 4 9 -3 22 -1 30 4 27 17 31 9 8 -16z m19 -74
c-12 -4 -28 17 -28 39 0 10 7 7 20 -10 11 -15 15 -26 8 -29z m-41 7 c-3 -8 -6
-5 -6 6 -1 11 2 17 5 13 3 -3 4 -12 1 -19z m-621 -83 c9 -8 11 -15 6 -15 -5 0
-15 7 -22 15 -7 8 -9 15 -6 15 4 0 14 -7 22 -15z"/>
<path d="M9578 5303 c7 -3 16 -2 19 1 4 3 -2 6 -13 5 -11 0 -14 -3 -6 -6z"/>
<path d="M380 5290 c-13 -8 -12 -10 3 -10 9 0 17 5 17 10 0 12 -1 12 -20 0z"/>
<path d="M9558 5243 c6 -2 18 -2 25 0 6 3 1 5 -13 5 -14 0 -19 -2 -12 -5z"/>
<path d="M3148 5203 c7 -3 16 -2 19 1 4 3 -2 6 -13 5 -11 0 -14 -3 -6 -6z"/>
<path d="M3100 5190 c0 -5 5 -10 10 -10 6 0 10 5 10 10 0 6 -4 10 -10 10 -5 0
-10 -4 -10 -10z"/>
<path d="M10542 5148 c-16 -16 -15 -28 3 -28 8 0 15 9 15 20 0 23 -2 24 -18 8z"/>
<path d="M1738 5123 c7 -3 16 -2 19 1 4 3 -2 6 -13 5 -11 0 -14 -3 -6 -6z"/>
<path d="M10680 5105 c0 -8 5 -15 10 -15 6 0 10 7 10 15 0 8 -4 15 -10 15 -5
0 -10 -7 -10 -15z"/>
<path d="M9690 5036 c0 -2 7 -6 15 -10 8 -3 15 -1 15 4 0 6 -7 10 -15 10 -8 0
-15 -2 -15 -4z"/>
<path d="M2840 4710 c0 -5 5 -10 11 -10 5 0 7 5 4 10 -3 6 -8 10 -11 10 -2 0
-4 -4 -4 -10z"/>
<path d="M9730 4710 c0 -5 7 -10 15 -10 8 0 15 5 15 10 0 6 -7 10 -15 10 -8 0
-15 -4 -15 -10z"/>
<path d="M9665 4310 c3 -5 8 -10 11 -10 2 0 4 5 4 10 0 6 -5 10 -11 10 -5 0
-7 -4 -4 -10z"/>
<path d="M2270 4220 c-125 -9 -269 -28 -297 -40 -19 -8 -23 -17 -23 -55 0 -25
5 -45 10 -45 6 0 10 -15 10 -34 0 -18 7 -53 16 -77 10 -24 16 -65 15 -90 -2
-52 32 -118 61 -119 9 0 49 6 90 14 40 7 80 14 88 14 99 6 186 20 214 34 15 8
17 17 13 53 -4 23 -15 58 -25 76 -11 20 -20 57 -21 89 -2 30 -8 58 -14 62 -6
4 -11 33 -12 65 0 67 10 62 -125 53z"/>
<path d="M9738 4153 c7 -3 16 -2 19 1 4 3 -2 6 -13 5 -11 0 -14 -3 -6 -6z"/>
<path d="M4748 3913 c7 -3 16 -2 19 1 4 3 -2 6 -13 5 -11 0 -14 -3 -6 -6z"/>
<path d="M3415 3853 c7 -21 16 -37 19 -35 3 1 11 2 16 2 18 0 10 26 -15 48
-14 12 -27 22 -29 22 -2 0 2 -17 9 -37z"/>
<path d="M3465 3801 c-8 -14 12 -52 38 -73 18 -14 19 -19 8 -32 -8 -9 -9 -16
-3 -16 6 0 12 5 14 12 2 6 16 -10 32 -36 15 -25 31 -44 37 -41 5 4 9 -1 9 -10
0 -9 5 -13 11 -9 14 9 2 55 -20 74 -19 16 -69 82 -87 114 -13 24 -30 31 -39
17z"/>
<path d="M2400 3615 c0 -8 7 -15 16 -15 14 0 14 3 4 15 -7 8 -14 15 -16 15 -2
0 -4 -7 -4 -15z"/>
<path d="M3522 3611 c2 -7 7 -12 11 -12 12 1 9 15 -3 20 -7 2 -11 -2 -8 -8z"/>
<path d="M3353 3560 c0 -25 2 -35 4 -22 2 12 2 32 0 45 -2 12 -4 2 -4 -23z"/>
<path d="M3230 3530 c0 -5 5 -10 10 -10 6 0 10 5 10 10 0 6 -4 10 -10 10 -5 0
-10 -4 -10 -10z"/>
<path d="M9020 2970 c0 -5 5 -10 10 -10 6 0 10 5 10 10 0 6 -4 10 -10 10 -5 0
-10 -4 -10 -10z"/>
<path d="M7900 2919 c0 -24 4 -38 10 -34 6 4 10 -15 10 -49 0 -31 2 -56 4 -56
2 0 20 -7 40 -15 l36 -15 0 65 0 65 -30 0 c-28 0 -30 2 -30 40 0 33 -3 40 -20
40 -17 0 -20 -7 -20 -41z"/>
<path d="M6542 2941 c-5 -3 -15 -16 -21 -29 -11 -20 -10 -26 6 -38 20 -15 46
-18 57 -6 4 4 12 8 17 8 5 1 14 2 19 3 14 2 13 48 -2 57 -15 9 -64 13 -76 5z"/>
<path d="M8080 2840 c0 -36 -2 -40 -25 -40 -14 0 -25 -4 -25 -9 0 -5 11 -18
25 -29 14 -11 25 -25 25 -31 0 -6 17 -11 40 -11 l40 0 0 40 c0 36 -2 40 -25
40 -22 0 -25 4 -25 40 0 29 -4 40 -15 40 -11 0 -15 -11 -15 -40z"/>
<path d="M6730 2843 c-14 -3 -31 -9 -37 -15 -7 -6 -19 -8 -26 -5 -15 5 -37
-16 -57 -53 -30 -57 32 -108 116 -95 35 5 49 13 74 48 16 22 28 48 26 57 -2 8
-7 27 -10 43 -7 28 -21 32 -86 20z"/>
<path d="M3991 2714 c0 -11 3 -14 6 -6 3 7 2 16 -1 19 -3 4 -6 -2 -5 -13z"/>
<path d="M7902 2588 c-16 -16 -15 -28 3 -28 8 0 15 9 15 20 0 23 -2 24 -18 8z"/>
<path d="M5555 2273 c-11 -3 -24 -10 -30 -17 -5 -7 -15 -15 -21 -17 -9 -3 -9
-13 0 -38 8 -26 19 -37 41 -43 45 -12 107 2 133 29 23 25 29 53 12 53 -5 0
-10 9 -10 20 0 18 -6 20 -52 19 -29 -1 -62 -3 -73 -6z"/>
<path d="M7020 1615 c-10 -12 -10 -15 4 -15 9 0 16 7 16 15 0 8 -2 15 -4 15
-2 0 -9 -7 -16 -15z"/>
<path d="M6461 1536 c-7 -9 -21 -16 -30 -17 -34 -2 46 -28 87 -29 35 0 42 3
42 20 0 17 -7 20 -39 20 -22 0 -41 5 -43 11 -2 7 -9 5 -17 -5z"/>
<path d="M6375 1530 c-3 -5 -2 -10 4 -10 5 0 13 5 16 10 3 6 2 10 -4 10 -5 0
-13 -4 -16 -10z"/>
</g>
</svg>
